<svg xmlns="http://www.w3.org/2000/svg" xmlns:xlink="http://www.w3.org/1999/xlink" width="312" height="240" viewBox="0 0 312 240">
  <defs>
    <clipPath id="clip-path">
      <rect id="Rectangle_4400" data-name="Rectangle 4400" width="133.575" height="54.525" fill="none"/>
    </clipPath>
  </defs>
  <g id="Illustration" transform="translate(-26.914 -24.671)">
    <path id="Path_28916" data-name="Path 28916" d="M235.59,114.7H109.715a6.306,6.306,0,0,1-6.315-6.3V35.105a6.3,6.3,0,0,1,6.315-6.294H236.158A5.738,5.738,0,0,1,241.9,34.54V108.4a6.305,6.305,0,0,1-6.315,6.3" transform="translate(17.263 0.919)" fill="#9d0060"/>
    <path id="Path_28917" data-name="Path 28917" d="M236,110.8H108.344a2.957,2.957,0,0,1-2.961-2.952V34.464a2.957,2.957,0,0,1,2.961-2.952H236a2.957,2.957,0,0,1,2.961,2.952v73.378A2.958,2.958,0,0,1,236,110.8" transform="translate(17.71 1.519)" fill="#c4c4c4"/>
    <g id="Group_26848" data-name="Group 26848" transform="translate(123.093 33.031)" opacity="0.25" style="mix-blend-mode: screen;isolation: isolate">
      <g id="Group_26847" data-name="Group 26847">
        <g id="Group_26846" data-name="Group 26846" clip-path="url(#clip-path)">
          <path id="Path_28918" data-name="Path 28918" d="M238.958,40.952V32.428a.851.851,0,0,0-.765-.916H106.148a.852.852,0,0,0-.765.916V86.037Z" transform="translate(-105.383 -31.512)" fill="#525252"/>
        </g>
      </g>
    </g>
    <path id="Path_28919" data-name="Path 28919" d="M252.316,231.346l-2.469-.352c.326-23.84.613-58.175.069-60.206a.723.723,0,0,0,.164.274l2-1.157c.324.36.52.578.587,10.717.034,5.217.022,12.421-.039,21.413-.1,15.307-.313,29.158-.315,29.312" transform="translate(50.315 32.239)" fill="#171717"/>
    <path id="Path_28920" data-name="Path 28920" d="M268.877,177.889l-1.326-1.119c4.856-5.719,7.527-16.618,7.723-31.517a157.034,157.034,0,0,0-1.218-21.2l1.721-.241a158.806,158.806,0,0,1,1.236,21.44,93.446,93.446,0,0,1-1.75,17.848c-1.358,6.423-3.507,11.4-6.385,14.788" transform="translate(54.311 22.008)" fill="#171717"/>
    <path id="Path_28921" data-name="Path 28921" d="M258.948,101.487c.718,0,27.474-2.9,27.952.683s1.436,31.5-3.351,32.453-28-3.341-28-3.341Z" transform="translate(51.601 16.806)" fill="#171717"/>
    <path id="Path_28922" data-name="Path 28922" d="M230.532,171.471c1.033-.205-2.633,3.579,0,4.773s42.366.477,45.478-.954,6.941-3.819,5.5-6.921-25.921-7.158-25.921-7.158l-22.19,5.966s-4.068,4.534-2.872,4.3" transform="translate(45.737 30.309)" fill="#171717"/>
    <path id="Path_28923" data-name="Path 28923" d="M268.809,218.721H239.388a2.449,2.449,0,0,0-2.453,2.446.429.429,0,0,0,.429.428h33.469a.428.428,0,0,0,.429-.428h0a2.449,2.449,0,0,0-2.453-2.445" transform="translate(47.401 43.076)" fill="#171717"/>
    <path id="Path_28924" data-name="Path 28924" d="M253.5,216.747h-3.6a1.925,1.925,0,1,0,0,3.849h3.6a1.925,1.925,0,1,0,0-3.849" transform="translate(49.891 42.638)" fill="#171717"/>
    <path id="Path_28925" data-name="Path 28925" d="M248.275,164.673c.791-.395,21.968-15.2,21.968-15.2l-25.92-2.531s-40.524,5.528-46.436,10.441q-.64.532-1.179,1.018a7.8,7.8,0,0,0-1.2,10.195c3.993,5.853,1.492,5.244,8.283,14.859,8.033,11.372,26.855,33.927,26.855,33.927,2.277,2.787,5.381,6.67,5.413,7.178.051.8.163,8.342-.757,9.147s-2.418,1.821-2.14,2.35c.441.838,2.837.794,6.184.611.977-.054,3.99-6.913,4.376-8.055.563-1.658,1.929-5.4,1.418-6.551a9.733,9.733,0,0,0-3.118-2.8c-1.071-.689-3.98-4.411-6.1-7.229,0,0-19.313-36.038-21.306-37.446s-9.813-10.306-9.813-10.306,13.041,4.926,13.635,4.926,29.047-4.138,29.837-4.531" transform="translate(37.743 27.142)" fill="#d87530"/>
    <path id="Path_28926" data-name="Path 28926" d="M235.454,206.5s-4.872,13.266-6.9,13.97c-.539.187-3.743,1.2-4.231,2.345a4.931,4.931,0,0,0,0,1.493h9.75a29.158,29.158,0,0,0,2.062-5.984s4.024-9.336,3.779-9.993c-.732-1.964-4.455-1.831-4.455-1.831" transform="translate(44.539 40.363)" fill="#671273"/>
    <path id="Path_28927" data-name="Path 28927" d="M279.925,149.313s-22.428-2.167-30.134,0-38.73,11.624-40.9,13.987-30.233,58.648-30.247,58.676a52.5,52.5,0,0,1-3.693,6.483,12.91,12.91,0,0,1-2.662,2.474c-.387.236-1.617.917-1.912,1.058-4.523,2.178-5.665,2.862-7.082,3.9-.864.633-1,.61.072.593l17.231-.7s1.944.387,2.7-1.025.252-3.023-.045-4.524c-.206-1.042.011-2.445,1.245-4.523,2.755-4.64,23.723-28.831,28.083-36.491,4.376-7.686,5.621-12.578,5.777-14.863,13.043,0,51.235-.265,57.9-6.47s3.661-18.572,3.661-18.572" transform="translate(30.624 27.455)" fill="#ebad6e"/>
    <path id="Path_28928" data-name="Path 28928" d="M172.584,216a17.594,17.594,0,0,0,11.089-.389c.555,1.567,1.417,3.481,1.026,4.614-.478,1.388-1.16,1.7-1.76,1.717-4.758.125-17.428.294-21.056.341a.589.589,0,0,1-.461-.969c.9-1.069,10.774-5.079,11.162-5.314" transform="translate(30.326 42.386)" fill="#671273"/>
    <path id="Path_28929" data-name="Path 28929" d="M243.711,146.881s-40.55,5.608-46.462,10.52a8.357,8.357,0,0,0-.7.678,14.854,14.854,0,0,1,1.7-.758s9.328-.59,16.886,10.939a25.774,25.774,0,0,0,2.7.881c.593,0,29.048-4.136,29.837-4.531s21.968-15.2,21.968-15.2Z" transform="translate(38.286 27.129)" fill="#3b0f41"/>
    <path id="Path_28930" data-name="Path 28930" d="M270.183,149.313s-22.428-2.167-30.134,0c-5.706,1.6-24.188,7.2-34.285,10.962,3.57,2.442,7.521,6.692,10.689,14.078,16.785.026,45.879-.3,51.506-5.538,6.669-6.205,2.223-19.5,2.223-19.5" transform="translate(40.366 27.455)" fill="#671273"/>
    <path id="Path_28931" data-name="Path 28931" d="M205.451,134.214,229.11,129s8.557-10.961,16.774-20.394c2.418,2.385,3.762,6.052,6.2,8.415l-18.062,19.918a3.454,3.454,0,0,1-2.548,1.133l-25.075.084-8.581.681v-5.474Z" transform="translate(38.572 18.631)" fill="#d87530"/>
    <path id="Path_28932" data-name="Path 28932" d="M244.053,105.886c-4.138-1.095-20.707,23.719-20.707,23.719s2.244,1.039,6.24,6.472l6.385-7.04.01.012s12.687-11.947,15.1-16.106-2.887-5.962-7.024-7.057" transform="translate(44.334 18.021)" fill="#c2003d"/>
    <path id="Path_28933" data-name="Path 28933" d="M233.241,84.2c.1-.2.162-.31.162-.31l-.009-.084q.445-1.1.982-2.19c2.373-4.8,8.245-7.519,13.6-7.526a17.143,17.143,0,0,1,4.791.649c2.193.982,7.553,4.383,8.948,14.512a16.2,16.2,0,0,1-1.938,10.168c1.444.9,3.339,2.735,4.712,6.431,2.522,6.789,15.136,8.3,16.4,17.352s-11.856,25.4-25.73,14.839c-10.562-8.041-8.845-23.366-7.423-30.227a15.527,15.527,0,0,1-10.236-2.215,12.856,12.856,0,0,1-6.556-9.571,35.018,35.018,0,0,1,2.3-11.828" transform="translate(46.048 10.969)" fill="#671273"/>
    <path id="Path_28934" data-name="Path 28934" d="M249.885,103.506s8.4-1.655,12.24,1.541-.821,31.6-.818,36.3,2.633,18.012,2.633,18.012-25.472,4.444-29.518-2.624c0,0-1.152-26.929-.981-30.315s1.259-13.437,4.992-18.718c1.047-1.481,11.452-4.2,11.452-4.2" transform="translate(46.609 17.405)" fill="#9d0060"/>
    <path id="Path_28935" data-name="Path 28935" d="M243.3,103.277c8.6,0,14.721-7.758,14.977-8.088a.756.756,0,0,0-1.2-.925c-.059.076-5.935,7.5-13.781,7.5a.755.755,0,1,0,0,1.509" transform="translate(48.667 15.384)" fill="#9d0060"/>
    <path id="Path_28936" data-name="Path 28936" d="M248.3,92.856s.044.251.124.677c.381,2.044,1.848,8.829,2.841,10.694,1.2,2.255-4.1,9.443-9.2,8.566-1.52-.262,1.283-6.606,1.148-7.277-.257-1.287-.607-3.042-.965-4.841-.2-1.014-.407-2.044-.6-3.011-.547-2.749-.992-5-.992-5Z" transform="translate(48.242 15.094)" fill="#ebad6e"/>
    <path id="Path_28937" data-name="Path 28937" d="M248.429,93.532c-.08-.426-.124-.677-.124-.677l-7.646-.189.992,5c.19.963.393,1.986.594,3a7.169,7.169,0,0,0,3.65-1.821,9.594,9.594,0,0,0,2.765-4.092c-.094-.48-.173-.894-.232-1.212" transform="translate(48.242 15.094)" fill="#ebad6e" style="mix-blend-mode: multiply;isolation: isolate"/>
    <path id="Path_28938" data-name="Path 28938" d="M217.669,134.214,241.328,129s8.557-10.961,16.774-20.394c2.418,2.385,3.762,6.052,6.2,8.415l-18.062,19.918a3.454,3.454,0,0,1-2.548,1.133l-25.075.084-8.581.681v-5.474Z" transform="translate(41.329 18.631)" fill="#ebad6e"/>
    <path id="Path_28939" data-name="Path 28939" d="M177.078,107.589H216.1a2.546,2.546,0,0,1,2.355,1.574l12.013,29.214h21.512a1.085,1.085,0,1,1,0,2.17H190.753a4.274,4.274,0,0,1-3.9-2.516l-12.1-26.867a2.537,2.537,0,0,1,2.321-3.576" transform="translate(33.317 18.406)" fill="#9d0060"/>
    <path id="Path_28940" data-name="Path 28940" d="M193.758,122.023a2.146,2.146,0,1,0,1.609-2.792,2.294,2.294,0,0,0-1.609,2.792" transform="translate(37.644 20.983)" fill="#fff"/>
    <path id="Path_28941" data-name="Path 28941" d="M243.068,77.63a8.031,8.031,0,0,1,6.711,2.78c2.585,3.242,5.372,13.266-1.052,18.717s-12.768-.72-13.709-7.261-1.307-14.472,8.05-14.236" transform="translate(46.865 11.751)" fill="#ebad6e"/>
    <path id="Path_28942" data-name="Path 28942" d="M241.124,76.767s5.511,9.533,9.453,9.974,4.46,5.506,4.46,5.506-1.41-11.672-5.312-13.923a14.907,14.907,0,0,0-8.6-1.557" transform="translate(48.346 11.542)" fill="#671273"/>
    <path id="Path_28943" data-name="Path 28943" d="M248.008,87.36c-.32,1.692.325,3.246,1.44,3.468s2.281-.97,2.6-2.664-.324-3.244-1.44-3.467-2.28.97-2.6,2.663" transform="translate(49.882 13.319)" fill="#ebad6e"/>
    <path id="Path_28944" data-name="Path 28944" d="M234.737,89.843c2.581-1.84,5.828-1.692,10.38-2.058a14.9,14.9,0,0,0,7.217-2.835c-2.6,2.751-4.377,4.813-3.6,6.439s3.694-.623,3.694-.623c-2.586,3.027-1.915,5-1.915,5-3.655,4.157-6.792,4.714-10.122,3.233-4.62-2.055-5.652-9.154-5.652-9.154" transform="translate(46.905 13.381)" fill="#9d0060"/>
    <path id="Path_28945" data-name="Path 28945" d="M259.449,103.6c-4.138-1.095-17.639,18.69-17.64,18.691-3.675,4.527-6.244,7.819-6.244,7.819s2.244,1.039,6.24,6.472l6.383-7.04.011.012s12.687-11.947,15.1-16.106a6.516,6.516,0,0,0-3.847-9.849" transform="translate(47.092 17.512)" fill="#c2003d"/>
    <path id="Path_28946" data-name="Path 28946" d="M216.049,218.721H186.628a2.449,2.449,0,0,0-2.453,2.446.428.428,0,0,0,.428.428h33.47a.428.428,0,0,0,.429-.428h0a2.449,2.449,0,0,0-2.453-2.445" transform="translate(35.493 43.076)" fill="#171717"/>
    <rect id="Rectangle_4401" data-name="Rectangle 4401" width="3.732" height="100.454" transform="translate(235.053 161.205)" fill="#3d3d3d"/>
    <path id="Path_28947" data-name="Path 28947" d="M200.739,216.747h-3.6a1.925,1.925,0,1,0,0,3.849h3.6a1.925,1.925,0,1,0,0-3.849" transform="translate(37.983 42.638)" fill="#171717"/>
    <rect id="Rectangle_4402" data-name="Rectangle 4402" width="116.062" height="3.742" transform="translate(178.8 158.933)" fill="#3d3d3d"/>
    <path id="Path_28948" data-name="Path 28948" d="M38.309,201.771s-1.126,7.832-3.063,10.359a19.93,19.93,0,0,0-2.618,3.455c-1.215,2.387-.543,5.939.352,7.9.46,1-.032,1,1.015,1.325a6.423,6.423,0,0,0,7.715-3.632,18.489,18.489,0,0,0,1.514-6.673c.331-7.111,2.536-10.727,2.536-10.727Z" transform="translate(1.141 39.313)" fill="#ebad6e"/>
    <path id="Path_28949" data-name="Path 28949" d="M65.031,204.7s.695,8.831.131,11.7c-.3,1.536-1.986,4.7-1.213,6.147a3.882,3.882,0,0,0,1.655,1.807l20.007.324c1.09.017.37-.686-.509-1.333-1.439-1.061-2.6-1.762-7.194-3.991-.3-.144-1.391-.841-1.785-1.081a13.861,13.861,0,0,1-2.862-2.534c-1.437-1.6-1.562-9.381-1.562-9.381Z" transform="translate(8.313 39.964)" fill="#ebad6e"/>
    <path id="Path_28950" data-name="Path 28950" d="M81.068,109.041s2.52,14.339.865,23.739-9.415,100.892-9.415,100.892L65.686,230.7S61.667,193.415,62,188.354s2.949-13.532,2.949-13.532l-.879-29.387L75.2,106.828Z" transform="translate(7.914 18.237)" fill="#ebad6e"/>
    <path id="Path_28951" data-name="Path 28951" d="M60.889,106.762s-6.947,10.485-8.6,19.162,1.215,35.345-1.967,46.715c-1.723,6.155-8.251,15.661-9.244,23.615s-4.59,31.56-4.59,31.56l6.481,2.735,22.539-55.787L81.583,127.73,85.7,103.508Z" transform="translate(2.16 17.5)" fill="#ebad6e"/>
    <path id="Path_28952" data-name="Path 28952" d="M42.435,217.1c-4.807.879-8.005-1.941-9.67-4.051-1.221,2.391-1.818,5.958-.918,7.922.791,1.73,3.1,1.68,4.925,1.749a4.755,4.755,0,0,0,4.371-2.682,16.022,16.022,0,0,0,1.292-2.938" transform="translate(1.016 41.818)" fill="#c2003d"/>
    <path id="Path_28953" data-name="Path 28953" d="M76.13,215.89a18.064,18.064,0,0,1-11.39-.448c-.565,1.6-1.313,3.615-.916,4.774.485,1.42,1.177,1.741,1.788,1.757,4.833.127,17.7.3,21.388.349a.6.6,0,0,0,.468-.993c-.914-1.094-10.944-5.2-11.339-5.439" transform="translate(8.305 42.348)" fill="#c2003d"/>
    <path id="Path_28954" data-name="Path 28954" d="M90.747,50.394a37.208,37.208,0,0,0-3.418-17.98c-2.379-4.936-8.265-7.735-13.632-7.742-17.043-.022-19.212,22.43-30.06,31.09-3.316,2.646-7.021,4.8-10.159,7.655C21.895,73.952,27.113,93.458,37.749,102.7c7.38,6.411,18.98,10.053,28.077,5.042,4.748-2.616,8.353-6.964,10.922-11.729,3.644-6.762,5.994-14.564,8.586-21.771,2.76-7.67,5.072-15.656,5.413-23.845" fill="#671273"/>
    <path id="Path_28955" data-name="Path 28955" d="M72.588,62.721a12.514,12.514,0,0,0-1.522,9.164c1.086,5.49,17.588,22.461,19.654,23.552,2.252,1.188,3.633.722,4.642.149,8.7-4.936,20.981-31.214,22.407-33.088l1.251-1.642-1.21-4.419L93.774,82.783S74.132,60.893,72.588,62.721" transform="translate(9.905 7.052)" fill="#ebad6e"/>
    <path id="Path_28956" data-name="Path 28956" d="M71.26,57.872a26.123,26.123,0,0,1,2.432,1.1c3.829,2.39,16.379,16.015,16.379,16.015s-6.605,7.075-9.529,10.1l-16.7-12.527Z" transform="translate(8.334 7.37)" fill="#9d0060"/>
    <path id="Path_28957" data-name="Path 28957" d="M58.29,106.98c-10.706,13.293-10.667,22.313-10.564,39.38s2.529,22.43-6.876,39.739c17,10,41.294,7.558,41.294,7.558,6.279-58.025,8.282-71.624,3.693-84.649A184.473,184.473,0,0,1,58.29,106.98" transform="translate(3.145 18.271)" fill="#671273"/>
    <path id="Path_28958" data-name="Path 28958" d="M62.89,55.957s-9.808-.621-13.689,3.588,8.608,37.5,9.313,42.853-5.343,16.73-5.343,16.73,17.716,7.477,32.377,3.3c0,0-.3-38.665-1-42.49s-6.586-19.386-8-20.915S62.89,55.957,62.89,55.957" transform="translate(4.862 6.938)" fill="#c2003d"/>
    <path id="Path_28959" data-name="Path 28959" d="M63.558,45.32s-.05.287-.142.776c-.438,2.346-2.122,10.13-3.259,12.27-1.374,2.586,4.707,10.833,10.561,9.827,1.743-.3-1.472-7.579-1.318-8.349.3-1.476.7-3.49,1.107-5.554.232-1.165.466-2.345.686-3.455.626-3.154,1.137-5.734,1.137-5.734Z" transform="translate(7.459 4.535)" fill="#ebad6e"/>
    <path id="Path_28960" data-name="Path 28960" d="M62.829,46.1c.091-.489.142-.776.142-.776l8.771-.219s-.51,2.58-1.136,5.734c-.219,1.1-.452,2.278-.683,3.436a8.244,8.244,0,0,1-4.188-2.09,11,11,0,0,1-3.172-4.695c.108-.551.2-1.026.266-1.391" transform="translate(8.046 4.535)" fill="#ebad6e" style="mix-blend-mode: multiply;isolation: isolate"/>
    <path id="Path_28961" data-name="Path 28961" d="M69.484,29.05a7.931,7.931,0,0,0-6.727,2.859c-2.591,3.335-5.384,13.648,1.053,19.256s12.8-.741,13.743-7.47,1.31-14.889-8.069-14.645" transform="translate(7.437 0.967)" fill="#ebad6e"/>
    <path id="Path_28962" data-name="Path 28962" d="M70.658,28.162S65.132,38,61.181,38.457s-4.468,5.631-4.468,5.631,1.412-12.01,5.324-14.324a14.6,14.6,0,0,1,8.62-1.6" transform="translate(6.726 0.752)" fill="#671273"/>
    <path id="Path_28963" data-name="Path 28963" d="M61.966,39.06c.321,1.741-.315,3.415-1.433,3.644s-2.3-1.074-2.618-2.817.325-3.338,1.444-3.567,2.286,1,2.607,2.74" transform="translate(6.978 2.58)" fill="#ebad6e"/>
    <path id="Path_28964" data-name="Path 28964" d="M60.157,36.6c4.634,3.073,8.829,2.131,12.359,2.671s5.068.98,5.316,1.468c-.693,5.669-2.983,9.1-6.407,10.642s-7.512-.788-9.169-3.294c.463-1.509-2.22-5.457-2.22-5.457,5.63,1.25,1.821-4.318.121-6.029" transform="translate(7.476 2.649)" fill="#c2003d"/>
    <path id="Path_28965" data-name="Path 28965" d="M88.209,112.846l-25.958.656L60.914,77.6l27.481.087Z" transform="translate(7.674 11.75)" fill="#671273"/>
    <path id="Path_28966" data-name="Path 28966" d="M91.909,91.686c-.065-.141-2.041.832-3.595.491-.31-.068.836-1.009.988-1.288.021-.037,2.323-1.487,2.131-2.477s-2.171-.352-2.171-.352-5.594,2.572-6.385,3.365A7.854,7.854,0,0,0,81.7,92.887a5.86,5.86,0,0,1-.862.214c-5.145.659-13.55-.511-26.357-2.519l-.015-6.7a71.621,71.621,0,0,1-9.63-.555c.115,5.108.05,13.968,1.146,15.658.769,1.185,7.528,1.983,15.05,2.555,9.582.733,12.1.187,20.419-.392,2.521-.185,5.984.583,7.3.59,1.955.012,2.641.23,3.629-.794.833-.864.735-2.99.6-4.306-.261-2.494-.344-3.45-1.072-4.955" transform="translate(4.046 13.021)" fill="#ebad6e"/>
    <path id="Path_28967" data-name="Path 28967" d="M55.071,56.707a12.791,12.791,0,0,0-8.223,5.925c-1.774,3.241-3.664,18.244-3.081,29.4,3.747-.793,10.036-.938,13.89-.953-.147-9.993-.7-34.706-2.585-34.369" transform="translate(3.779 7.111)" fill="#9d0060"/>
    <path id="Path_28968" data-name="Path 28968" d="M94.118,78.9s13.2-16.294,15.794-18.854,13.155-10.032,13.461-9.244-5.735,6.67-5.649,6.89,1.058,1.905,1.406,2.8a7.383,7.383,0,0,1,.142,3.723c-.3.668-2.44,1.8-3.648,2.27s-2.944.216-4.388,1.5-12.953,18.3-12.953,18.3Z" transform="translate(15.168 5.788)" fill="#ebad6e"/>
  </g>
</svg>