<svg id="Icon" xmlns="http://www.w3.org/2000/svg" xmlns:xlink="http://www.w3.org/1999/xlink" width="60" height="60" viewBox="0 0 60 60">
  <defs>
    <clipPath id="clip-path">
      <rect id="Rectangle_4500" data-name="Rectangle 4500" width="60" height="60" fill="none"/>
    </clipPath>
  </defs>
  <g id="Group_27152" data-name="Group 27152" clip-path="url(#clip-path)">
    <path id="Path_29350" data-name="Path 29350" d="M107.03,6.538a8.784,8.784,0,0,0-14.351-4.3,8.784,8.784,0,0,0-14.351,4.3,11.114,11.114,0,0,0-5.266,16.9,11.114,11.114,0,0,0,5.266,16.9,8.81,8.81,0,0,0,5.562,6.033V49.8a4.106,4.106,0,0,0,2.344,3.7v.045a6.445,6.445,0,0,0,12.891,0V53.51a4.106,4.106,0,0,0,2.344-3.7V46.37a8.809,8.809,0,0,0,5.562-6.033,11.114,11.114,0,0,0,5.266-16.9,11.114,11.114,0,0,0-5.266-16.9ZM97.367,50.391H87.992a.587.587,0,0,1-.586-.586v-2.93H97.953V49.8a.587.587,0,0,1-.586.586M81.576,8.238A5.391,5.391,0,0,1,86.82,3.516a5.261,5.261,0,0,1,4.1,1.966V27.89c-2.046-.564-3.516-2.084-3.516-3.866a1.758,1.758,0,0,0-3.516,0c0,3.679,3.024,6.756,7.031,7.464V43.359h-4.1a5.4,5.4,0,0,1-5.246-4.734,5.282,5.282,0,0,1,1.517-4.268,1.758,1.758,0,0,0-2.486-2.486A8.772,8.772,0,0,0,78.2,36.4a7.6,7.6,0,0,1-1.586-11.751,1.758,1.758,0,0,0,0-2.419A7.6,7.6,0,0,1,78.2,10.476,8.8,8.8,0,0,0,80.606,15a1.758,1.758,0,1,0,2.486-2.486,5.289,5.289,0,0,1-1.515-4.28m11.1,48.246a2.934,2.934,0,0,1-2.908-2.578h5.816A2.933,2.933,0,0,1,92.68,56.484Zm11.1-48.246a5.288,5.288,0,0,1-1.515,4.28A1.758,1.758,0,1,0,104.754,15a8.8,8.8,0,0,0,2.406-4.529,7.6,7.6,0,0,1,1.588,11.753,1.758,1.758,0,0,0,0,2.419A7.6,7.6,0,0,1,107.159,36.4a8.76,8.76,0,0,0-2.4-4.529,1.758,1.758,0,1,0-2.486,2.486,5.282,5.282,0,0,1,1.517,4.269,5.4,5.4,0,0,1-5.246,4.734h-4.1V18.985c2.046.564,3.516,2.084,3.516,3.866a1.758,1.758,0,0,0,3.516,0c0-3.679-3.024-6.756-7.031-7.464V5.482a5.261,5.261,0,0,1,4.1-1.966,5.391,5.391,0,0,1,5.244,4.722" transform="translate(-62.68)"/>
    <path id="Path_29351" data-name="Path 29351" d="M452.293,55.076a1.758,1.758,0,0,0,2.438.488l3.516-2.344a1.758,1.758,0,0,0-1.95-2.925l-3.516,2.344a1.758,1.758,0,0,0-.487,2.438" transform="translate(-399.029 -44.14)"/>
    <path id="Path_29352" data-name="Path 29352" d="M458.246,302.637l-3.516-2.344a1.758,1.758,0,0,0-1.95,2.925l3.516,2.344a1.758,1.758,0,1,0,1.95-2.925" transform="translate(-399.029 -264.842)"/>
    <path id="Path_29353" data-name="Path 29353" d="M6.249,52.637,2.733,50.294a1.758,1.758,0,1,0-1.95,2.925L4.3,55.562a1.758,1.758,0,0,0,1.95-2.925" transform="translate(0 -44.139)"/>
    <path id="Path_29354" data-name="Path 29354" d="M4.3,300.294.783,302.638a1.758,1.758,0,1,0,1.95,2.925l3.516-2.344a1.758,1.758,0,1,0-1.95-2.925" transform="translate(0 -264.842)"/>
    <path id="Path_29355" data-name="Path 29355" d="M5.273,188.516H1.758a1.758,1.758,0,0,1,0-3.516H5.273a1.758,1.758,0,0,1,0,3.516" transform="translate(0 -163.32)"/>
    <path id="Path_29356" data-name="Path 29356" d="M457.273,188.516h-3.516a1.758,1.758,0,0,1,0-3.516h3.516a1.758,1.758,0,0,1,0,3.516" transform="translate(-399.031 -163.32)"/>
  </g>
</svg>
