<svg id="Group_27304" data-name="Group 27304" xmlns="http://www.w3.org/2000/svg" xmlns:xlink="http://www.w3.org/1999/xlink" width="26" height="31" viewBox="0 0 26 31">
  <defs>
    <clipPath id="clip-path">
      <rect id="Rectangle_4538" data-name="Rectangle 4538" width="26" height="31" fill="#fff"/>
    </clipPath>
  </defs>
  <g id="Group_27307" data-name="Group 27307" transform="translate(0 0)" clip-path="url(#clip-path)">
    <path id="Path_30320" data-name="Path 30320" d="M25.331,31H.669A.67.67,0,0,1,0,30.329V.712A.67.67,0,0,1,.668.042L20.077,0h0a.67.67,0,0,1,.67.67v4.78l4.577-.042h.006A.67.67,0,0,1,26,6.08V30.329a.67.67,0,0,1-.669.671M1.339,29.659H24.661V6.757L20.085,6.8a.66.66,0,0,1-.477-.194.673.673,0,0,1-.2-.476V1.343L1.339,1.382Z" transform="translate(0 0)" fill="#fff"/>
    <path id="Path_30321" data-name="Path 30321" d="M42.473,6.8a.67.67,0,0,1-.669-.671V.671A.669.669,0,0,1,42.953.2l5.252,5.409a.671.671,0,0,1-.474,1.139L42.48,6.8Zm.669-4.477v3.13l3.012-.027Z" transform="translate(-22.395 0)" fill="#fff"/>
    <path id="Path_30322" data-name="Path 30322" d="M24.324,14.994a3.248,3.248,0,1,0,3.24,3.248,3.248,3.248,0,0,0-3.24-3.248m0,5.809a2.561,2.561,0,1,1,2.555-2.561A2.561,2.561,0,0,1,24.324,20.8" transform="translate(-11.294 -8.017)" fill="#fff"/>
    <path id="Path_30323" data-name="Path 30323" d="M26.288,18.541V17.358a.207.207,0,0,1,.041-.126l.694-.957a.9.9,0,0,0,0-1.057l-.694-.957a.207.207,0,0,1-.041-.124V12.954a.9.9,0,0,0-.618-.856l-1.124-.366a.193.193,0,0,1-.1-.075l-.695-.959a.892.892,0,0,0-1-.325l-1.123.364a.2.2,0,0,1-.13,0l-1.124-.364a.89.89,0,0,0-1,.325l-.694.959a.209.209,0,0,1-.107.075l-1.121.366a.9.9,0,0,0-.621.856v1.183a.22.22,0,0,1-.039.124l-.694.957a.894.894,0,0,0,0,1.057l.694.957a.221.221,0,0,1,.039.126v1.183a.9.9,0,0,0,.621.856l.975.316-2.094,5.353a.345.345,0,0,0,.071.362.339.339,0,0,0,.358.089l1.562-.529.45,1.277a.344.344,0,0,0,.319.231h0a.347.347,0,0,0,.322-.222l2.082-5.5,2.083,5.5a.343.343,0,0,0,.319.222h0a.342.342,0,0,0,.318-.231l.45-1.277,1.562.529a.339.339,0,0,0,.358-.089.344.344,0,0,0,.071-.362l-2.08-5.314L25.67,19.4a.9.9,0,0,0,.618-.856M19.1,25.152l-.251-.712a.338.338,0,0,0-.322-.228.3.3,0,0,0-.11.018l-1.187.4,1.724-4.4.411.567a.891.891,0,0,0,.724.371.9.9,0,0,0,.279-.043l.295-.1Zm6.649-.522-1.188-.4a.34.34,0,0,0-.431.21l-.251.712L22.3,20.978l.445.144a.893.893,0,0,0,1-.328l.327-.448Zm-.146-6.09a.212.212,0,0,1-.146.2l-1.124.366a.886.886,0,0,0-.367.231,1.191,1.191,0,0,0-.08.1l-.618.854-.076.1a.212.212,0,0,1-.237.078l-.121-.039-1-.328a.851.851,0,0,0-.123-.03.825.825,0,0,0-.388.019.234.234,0,0,0-.043.011l-1.069.348-.055.018a.213.213,0,0,1-.237-.078l-.034-.048-.658-.909a.344.344,0,0,0-.03-.037.886.886,0,0,0-.42-.29l-1.123-.366a.212.212,0,0,1-.146-.2V17.358a.9.9,0,0,0-.171-.529l-.694-.957a.217.217,0,0,1,0-.249l.694-.959a.889.889,0,0,0,.171-.526V12.954a.214.214,0,0,1,.146-.2l1.123-.364a.893.893,0,0,0,.448-.328l.695-.956a.21.21,0,0,1,.171-.089.221.221,0,0,1,.066.011l1.124.366a.884.884,0,0,0,.555,0l1.121-.366a.209.209,0,0,1,.237.078l.694.956a.9.9,0,0,0,.448.328l1.124.364a.214.214,0,0,1,.146.2v1.183a.9.9,0,0,0,.171.529l.694.957a.21.21,0,0,1,0,.249l-.694.957a.9.9,0,0,0-.171.529Z" transform="translate(-8.526 -5.523)" fill="#fff"/>
    <path id="Path_30324" data-name="Path 30324" d="M25.619,50.35H7.3a.687.687,0,0,1,0-1.373H25.619a.687.687,0,0,1,0,1.373" transform="translate(-3.541 -26.188)" fill="#fff"/>
    <path id="Path_30325" data-name="Path 30325" d="M25.619,57.127H7.3a.687.687,0,0,1,0-1.373H25.619a.687.687,0,0,1,0,1.373" transform="translate(-3.541 -29.812)" fill="#fff"/>
  </g>
</svg>
