<svg id="Icon" xmlns="http://www.w3.org/2000/svg" xmlns:xlink="http://www.w3.org/1999/xlink" width="20" height="17.57" viewBox="0 0 20 17.57">
  <defs>
    <clipPath id="clip-path">
      <rect id="Rectangle_4654" data-name="Rectangle 4654" width="20" height="17.57" fill="#7c7c7c"/>
    </clipPath>
  </defs>
  <g id="Icon-2" data-name="Icon" clip-path="url(#clip-path)">
    <path id="Path_30365" data-name="Path 30365" d="M19.888,5a5.927,5.927,0,0,0-2.579-3.968,5.952,5.952,0,0,0-7.213.4c-.082.071-.1.072-.176.011A5.856,5.856,0,0,0,6.267.008,5.735,5.735,0,0,0,3.142.755,6.027,6.027,0,0,0,.154,4.81c-.046.2-.078.413-.108.615-.014.094-.029.188-.044.282v.88c0,.018.007.037.011.055a1,1,0,0,1,.019.106,6.245,6.245,0,0,0,1.805,3.82L4.7,13.487l3,3.056a3.9,3.9,0,0,0,.377.348A3.112,3.112,0,0,0,10,17.569a3.161,3.161,0,0,0,2.255-.98l.37-.376c1.828-1.854,3.717-3.771,5.561-5.672A6.065,6.065,0,0,0,19.888,5m-1.25,1.188A4.8,4.8,0,0,1,17.22,9.579c-1.689,1.725-3.408,3.476-5.071,5.17l-.833.848a1.677,1.677,0,0,1-1.91.48,1.994,1.994,0,0,1-.688-.459c-2.229-2.252-4.1-4.146-5.96-6.07a4.846,4.846,0,0,1-1.37-2.877,4.952,4.952,0,0,1,.724-3.114,4.584,4.584,0,0,1,3.063-2.1,4.667,4.667,0,0,1,.874-.083,4.53,4.53,0,0,1,2.734.907,6.526,6.526,0,0,1,.658.584.806.806,0,0,0,.571.266.779.779,0,0,0,.552-.271,4.55,4.55,0,0,1,3.773-1.471,4.489,4.489,0,0,1,3.282,1.785,4.78,4.78,0,0,1,1.02,3.016" transform="translate(0 0.001)" fill="#7c7c7c"/>
    <path id="Path_30366" data-name="Path 30366" d="M263.682,53.069a.587.587,0,0,0-.635.1.577.577,0,0,0-.193.6.635.635,0,0,0,.36.428,3.7,3.7,0,0,1,.7.433,2.47,2.47,0,0,1,.1,3.622c-.664.688-1.339,1.366-2.008,2.049a1.2,1.2,0,0,0-.163.191.576.576,0,0,0-.01.641.524.524,0,0,0,.571.278.9.9,0,0,0,.431-.227c.688-.683,1.364-1.377,2.04-2.071a3.677,3.677,0,0,0,1.086-2.633,3.6,3.6,0,0,0-.571-1.982,3.531,3.531,0,0,0-1.715-1.423" transform="translate(-248.471 -50.329)" fill="#7c7c7c"/>
    <path id="Path_30367" data-name="Path 30367" d="M224.079,58.612a.55.55,0,0,0-.622.029,5.282,5.282,0,0,0-.582.479.6.6,0,0,0,.806.894c.167-.132.33-.269.493-.406a.581.581,0,0,0,.218-.476.574.574,0,0,0-.313-.521" transform="translate(-211.397 -55.561)" fill="#7c7c7c"/>
  </g>
</svg>
