<svg xmlns="http://www.w3.org/2000/svg" width="145" height="40" viewBox="0 0 145 40">
  <g id="Google_login" data-name="Google login" transform="translate(-348)">
    <rect id="Rectangle_4407" data-name="Rectangle 4407" width="145" height="40" rx="8" transform="translate(348)" fill="#2dc000"/>
    <path id="Icon_simple-wechat" data-name="Icon simple-wechat" d="M19.616,11.662A5.411,5.411,0,0,0,17.04,9.13a7.33,7.33,0,0,0-6.357.024A5.125,5.125,0,0,0,7.867,12.5a4.163,4.163,0,0,0,.567,3.182,6.105,6.105,0,0,0,4.142,2.609,7.9,7.9,0,0,0,3.615-.229c.7.262,1.327.686,2.007,1-.176-.568-.363-1.129-.563-1.688a5.537,5.537,0,0,0,1.87-1.991A4.178,4.178,0,0,0,19.616,11.662Zm-8.27-7.6a8.711,8.711,0,0,0-6.9-.518A6.991,6.991,0,0,0,.82,6.287a5,5,0,0,0-.666,3.95,6.072,6.072,0,0,0,2.718,3.545c-.25.683-.487,1.365-.712,2.052C2.973,15.424,3.785,15,4.6,14.58A9.365,9.365,0,0,0,7.648,15a4.778,4.778,0,0,1-.212-2.37A4.987,4.987,0,0,1,9.1,9.771a7.381,7.381,0,0,1,5.413-1.712,6.116,6.116,0,0,0-3.187-4h.022Zm1.444,8.024a.844.844,0,0,1-1.346.283.785.785,0,0,1,.3-1.3.816.816,0,0,1,1.05,1.021Zm4,.074a.856.856,0,0,1-1.313.217,1.185,1.185,0,0,1-.287-.586.905.905,0,0,1,.775-.767.81.81,0,0,1,.812,1.137h.012ZM10.824,6.971a1.036,1.036,0,0,1-1.662.73A.973.973,0,0,1,9.447,6.01a1.019,1.019,0,0,1,1.376.952Zm-5.049.2a1.043,1.043,0,0,1-1.622.545A.983.983,0,0,1,4.441,6,1.02,1.02,0,0,1,5.775,7.167Z" transform="translate(411.002 8.939)" fill="#fff"/>
  </g>
</svg>
