<svg xmlns="http://www.w3.org/2000/svg" width="21" height="21" viewBox="0 0 21 21">
  <path id="Path_29364" data-name="Path 29364" d="M10,21.831a.781.781,0,0,1-.781-.781V17.372a.781.781,0,0,1,1.563,0V21.05a.781.781,0,0,1-.781.781M7.319,19.286a.781.781,0,0,0-.9-1.28,6.249,6.249,0,1,0,7.158,0,.781.781,0,0,0-.9,1.279,4.687,4.687,0,1,1-5.365,0Zm9.753-3.23a10,10,0,1,0-1.885,15.623.781.781,0,0,0-.811-1.335,8.437,8.437,0,1,1,2.6-2.462.781.781,0,1,0,1.29.882,10,10,0,0,0-1.19-12.707Z" transform="translate(0.5 -12.627)" fill="#7c7c7c" stroke="rgba(0,0,0,0)" stroke-miterlimit="10" stroke-width="1"/>
</svg>
