<svg xmlns="http://www.w3.org/2000/svg" width="18" height="20" viewBox="0 0 18 20">
  <path id="Path_29368" data-name="Path 29368" d="M650.145,17.186H638.072V12.644a5.491,5.491,0,0,1,10.978,0v1.416a.8.8,0,0,0,1.6,0V12.644a7,7,0,0,0-6.288-6.89V5.281a.8.8,0,0,0-1.6,0v.473a7,7,0,0,0-6.288,6.89v4.593a2.36,2.36,0,0,0,.5,4.676h3.951v.01a2.634,2.634,0,0,0,5.266,0v-.01h3.951a2.364,2.364,0,1,0,0-4.728ZM644.6,21.924a1.036,1.036,0,0,1-2.072,0v-.01H644.6Zm5.548-1.573H636.977a.8.8,0,1,1,0-1.6h13.168a.8.8,0,1,1,0,1.6" transform="translate(-634.561 -4.5)" fill="#7c7c7c"/>
</svg>
