<svg xmlns="http://www.w3.org/2000/svg" width="20" height="20" viewBox="0 0 20 20">
  <path id="Path_29367" data-name="Path 29367" d="M16.875,9.219H13.906a3.129,3.129,0,0,1-3.125-3.125V3.125A3.129,3.129,0,0,1,13.906,0h2.969A3.129,3.129,0,0,1,20,3.125V6.094a3.129,3.129,0,0,1-3.125,3.125M13.906,1.563a1.564,1.564,0,0,0-1.562,1.563V6.094a1.564,1.564,0,0,0,1.563,1.563h2.969a1.564,1.564,0,0,0,1.563-1.562V3.125a1.564,1.564,0,0,0-1.562-1.562ZM6.094,9.219H3.125A3.129,3.129,0,0,1,0,6.094V3.125A3.129,3.129,0,0,1,3.125,0H6.094A3.129,3.129,0,0,1,9.219,3.125V6.094A3.129,3.129,0,0,1,6.094,9.219M3.125,1.563A1.564,1.564,0,0,0,1.563,3.125V6.094A1.564,1.564,0,0,0,3.125,7.656H6.094A1.564,1.564,0,0,0,7.656,6.094V3.125A1.564,1.564,0,0,0,6.094,1.563ZM6.094,20H3.125A3.129,3.129,0,0,1,0,16.875V13.906a3.129,3.129,0,0,1,3.125-3.125H6.094a3.129,3.129,0,0,1,3.125,3.125v2.969A3.129,3.129,0,0,1,6.094,20M3.125,12.344a1.564,1.564,0,0,0-1.562,1.563v2.969a1.564,1.564,0,0,0,1.563,1.563H6.094a1.564,1.564,0,0,0,1.563-1.562V13.906a1.564,1.564,0,0,0-1.562-1.562ZM20,16.875a.781.781,0,0,0-1.562,0,1.564,1.564,0,0,1-1.562,1.563H13.906a1.564,1.564,0,0,1-1.562-1.562V13.906a1.564,1.564,0,0,1,1.563-1.562h2.969a1.564,1.564,0,0,1,1.433.937.781.781,0,1,0,1.432-.626,3.126,3.126,0,0,0-2.864-1.874H13.906a3.129,3.129,0,0,0-3.125,3.125v2.969A3.129,3.129,0,0,0,13.906,20h2.969A3.129,3.129,0,0,0,20,16.875" fill="#7c7c7c"/>
</svg>
