<svg id="Credit_card_icon" data-name="Credit card icon" xmlns="http://www.w3.org/2000/svg" width="91.105" height="19.009" viewBox="0 0 91.105 19.009">
  <g id="visa">
    <path id="XMLID_4_" d="M671.362,655.409H650.028a2.467,2.467,0,0,1-2.428-2.5V638.9a2.467,2.467,0,0,1,2.428-2.5H671.37a2.467,2.467,0,0,1,2.428,2.5v14A2.476,2.476,0,0,1,671.362,655.409Z" transform="translate(-647.6 -636.4)" fill="#0066b2"/>
    <g id="XMLID_7_" transform="translate(4.726 7.072)">
      <g id="XMLID_9_" transform="translate(0.008)">
        <path id="XMLID_19_" d="M779.764,726.338H778.4l.853-5.238h1.364Z" transform="translate(-772.512 -721.003)" fill="#fff"/>
        <path id="XMLID_18_" d="M710.643,721.1l-1.3,3.606-.154-.78h0l-.463-2.355a.586.586,0,0,0-.65-.471h-2.152l-.024.089a5.143,5.143,0,0,1,1.429.6l1.186,4.556h1.421l2.168-5.238h-1.462Z" transform="translate(-705.9 -721.003)" fill="#fff"/>
        <path id="XMLID_11_" d="M855.606,726.338h1.251l-1.088-5.238h-1.1a.639.639,0,0,0-.634.39L852,726.338h1.421l.284-.78h1.738Zm-1.5-1.852.715-1.957.406,1.957Z" transform="translate(-840.135 -721.003)" fill="#fff"/>
        <path id="XMLID_10_" d="M809.482,721.256l.195-1.129a3.955,3.955,0,0,0-1.226-.227c-.674,0-2.282.292-2.282,1.738,0,1.356,1.884,1.372,1.884,2.079s-1.689.585-2.25.138l-.2,1.177a3.868,3.868,0,0,0,1.543.292c.934,0,2.339-.479,2.339-1.795,0-1.364-1.9-1.486-1.9-2.079C807.565,720.858,808.9,720.931,809.482,721.256Z" transform="translate(-797.504 -719.9)" fill="#fff"/>
      </g>
      <path id="XMLID_8_" d="M709.089,723.926l-.463-2.355a.586.586,0,0,0-.65-.471h-2.152l-.024.089a5.238,5.238,0,0,1,2.022,1.015A4.031,4.031,0,0,1,709.089,723.926Z" transform="translate(-705.8 -721.003)" fill="#f9a533"/>
    </g>
  </g>
  <g id="mastercard" transform="translate(32.454)">
    <path id="XMLID_5_" d="M1053.67,655.409h-21.342a2.467,2.467,0,0,1-2.428-2.5V638.9a2.467,2.467,0,0,1,2.428-2.5h21.342a2.467,2.467,0,0,1,2.428,2.5v14A2.469,2.469,0,0,1,1053.67,655.409Z" transform="translate(-1029.9 -636.4)" fill="#36495d"/>
    <g id="XMLID_3_" transform="translate(4.962 4.478)">
      <rect id="XMLID_41_" width="4.402" height="7.91" transform="translate(5.936 1.072)" fill="#f16522"/>
      <path id="XMLID_40_" d="M1097.212,693.127a5.028,5.028,0,0,1,1.925-3.955,5.027,5.027,0,1,0,0,7.91,5.028,5.028,0,0,1-1.925-3.955" transform="translate(-1091 -688.1)" fill="#e41b24"/>
      <path id="XMLID_20_" d="M1199.337,693.127a5.033,5.033,0,0,1-8.137,3.955,5.039,5.039,0,0,0,0-7.91,5.033,5.033,0,0,1,8.137,3.955m-.479,3.118v-.162h.065v-.033h-.162v.033h.065v.162Zm.325,0v-.195h-.049l-.057.138-.057-.138h-.049v.195H1199V696.1l.057.13h.041l.057-.13v.146Z" transform="translate(-1183.062 -688.1)" fill="#f89e1c"/>
    </g>
  </g>
  <g id="Amex" transform="translate(64.907)">
    <path id="XMLID_6_" d="M1435.97,655.409h-21.342a2.467,2.467,0,0,1-2.428-2.5V638.9a2.467,2.467,0,0,1,2.428-2.5h21.342a2.467,2.467,0,0,1,2.428,2.5v14A2.469,2.469,0,0,1,1435.97,655.409Z" transform="translate(-1412.2 -636.4)" fill="#006fcf"/>
    <g id="XMLID_63_" transform="translate(1.283 5.207)">
      <g id="XMLID_64_" transform="translate(0 0)">
        <path id="XMLID_90_" d="M1448.741,684.125h1.779V680h-1.892v.658L1448.2,680h-1.648v.836l-.374-.836h-2.728a1.955,1.955,0,0,0-.382.033,1.99,1.99,0,0,0-.536.162,1.191,1.191,0,0,0-.243.138V680h-8.917l-.244.723-.244-.723h-2.071v.845l-.374-.845h-1.689l-.755,1.77v2.363h1.2l.22-.593h.422l.227.593h9.217v-.6l.463.6h2.55v-.3c.065.041.139.081.2.114a2.212,2.212,0,0,0,.211.081,1.63,1.63,0,0,0,.268.065,2.659,2.659,0,0,0,.431.041h1.527l.219-.593h.422l.227.593h2.558v-.617Zm2.9,5.3v-3.874h-14.666l-.374.528-.373-.528H1432v4.134h4.207l.365-.536.381.536h2.631V688.8h-.025a2.532,2.532,0,0,0,.885-.154v1.048h1.835v-.6l.463.6h7.959a1.953,1.953,0,0,0,.634-.106C1451.445,689.534,1451.543,689.485,1451.64,689.428Z" transform="translate(-1428 -680)" fill="#f7f7f7"/>
        <g id="XMLID_77_" transform="translate(4.645 6.222)">
          <path id="XMLID_78_" d="M1492.969,744.633h-1.429v.56h1.413a.865.865,0,0,0,.958-.885.76.76,0,0,0-.861-.788h-.642a.251.251,0,0,1-.268-.268.258.258,0,0,1,.268-.276h1.21l.244-.569h-1.437a.862.862,0,0,0-.958.869.78.78,0,0,0,.869.812h.641a.258.258,0,0,1,.276.268A.276.276,0,0,1,1492.969,744.633Zm-2.656,0h-1.429v.56h1.413a.865.865,0,0,0,.958-.885.76.76,0,0,0-.861-.788h-.642a.252.252,0,0,1-.268-.268.258.258,0,0,1,.268-.276h1.21l.244-.569h-1.437a.862.862,0,0,0-.958.869.78.78,0,0,0,.869.812h.642a.258.258,0,0,1,.276.268A.276.276,0,0,1,1490.313,744.633Zm-1.835-1.665V742.4h-2.233v2.785h2.233v-.56h-1.559v-.56h1.527v-.56h-1.527v-.544h1.559Zm-3.728,0a.337.337,0,0,1,.365.349.331.331,0,0,1-.365.341h-.788v-.69Zm-.788,1.218h.317l.828,1.007h.828l-.926-1.023a.867.867,0,0,0,.755-.877.876.876,0,0,0-.966-.885h-1.51v2.785h.666v-1.007Zm-1.705-.853a.328.328,0,0,1-.357.341h-.8v-.682h.8A.324.324,0,0,1,1482.258,743.334Zm-1.819-.934v2.785h.666v-.918h.837a.916.916,0,0,0,.991-.934.9.9,0,0,0-.966-.934Zm-.983,2.785h.837l-1.121-1.4,1.113-1.381h-.812l-.682.885-.682-.885h-.844l1.112,1.4-1.112,1.4h.812l.682-.893Zm-2.323-2.217V742.4H1474.9v2.785h2.234v-.56h-1.559v-.56h1.527v-.56h-1.527v-.544h1.559Z" transform="translate(-1474.9 -742.4)" fill="#006fcf"/>
        </g>
        <path id="XMLID_65_" d="M1447.815,689.321l-.008-.227.138.227,1.064,1.665h.779V688.2h-.65v1.616l.008.2-.122-.2-1.039-1.616h-.82v2.785h.65Zm-2.672-.081.2-.52.2.52.244.617h-.893Zm1.1,1.754H1447l-1.194-2.786h-.877l-1.194,2.786h.715l.235-.6h1.324Zm-2.916,0h.033l.276-.593h-.2a.693.693,0,0,1-.731-.779v-.041a.7.7,0,0,1,.722-.771h.723v-.6h-.78a1.26,1.26,0,0,0-1.332,1.372v.049A1.248,1.248,0,0,0,1443.332,690.994Zm-2.379,0h.666v-2.786h-.666v2.786Zm-1.4-2.217a.337.337,0,0,1,.365.349.331.331,0,0,1-.365.341h-.788v-.69Zm-.78,1.21h.317l.828,1.007h.828l-.926-1.023a.867.867,0,0,0,.755-.877.876.876,0,0,0-.966-.885h-1.51v2.786h.666v-1.007Zm-1.161-1.218V688.2h-2.233v2.785h2.233v-.568h-1.559v-.552h1.527v-.56h-1.527v-.544h1.559Zm-5.547.317-.016-.755.771,2.656h.609l.771-2.639-.016.731v1.908h.65V688.2h-1.177l-.528,1.973-.536-1.973h-1.178v2.785h.65Zm-2.663.154.2-.52.2.52.244.617h-.894Zm1.112,1.754h.755l-1.194-2.786h-.877L1428,690.994h.714l.236-.6h1.323Z" transform="translate(-1428 -687.534)" fill="#006fcf"/>
      </g>
    </g>
  </g>
</svg>
