<svg xmlns="http://www.w3.org/2000/svg" width="16.835" height="20" viewBox="0 0 16.835 20">
  <path id="Path_29362" data-name="Path 29362" d="M1226.546,12.346a.781.781,0,0,0,.781-.781V2.5a.781.781,0,0,0-.781-.781h-13.71a2.346,2.346,0,0,0-2.344,2.344V19.376a2.346,2.346,0,0,0,2.344,2.344h13.71a.781.781,0,1,0,0-1.562h-13.71a.781.781,0,0,1,0-1.562h13.71a.781.781,0,0,0,.781-.781V15.47a.781.781,0,0,0-1.562,0v1.562h-10.585V3.283h10.585v8.281a.781.781,0,0,0,.781.781m-12.929,4.687h-.781a2.332,2.332,0,0,0-.781.134V4.065a.782.782,0,0,1,.781-.781h.781Zm9.414-10.663a.781.781,0,0,1,0,1.562h-5.117a.781.781,0,1,1,0-1.562Z" transform="translate(-1210.492 -1.72)" fill="#7c7c7c"/>
</svg>
