<svg xmlns="http://www.w3.org/2000/svg" width="80" height="12" viewBox="0 0 80 12">
  <g id="Group_26248" data-name="Group 26248" transform="translate(-20.001 -293)">
    <path id="Path_28838" data-name="Path 28838" d="M31.082,38.292l1.135,2.435a.457.457,0,0,0,.345.26l2.636.405a1.082,1.082,0,0,1,.606,1.822l-1.957,2.019a.462.462,0,0,0-.124.4l.451,2.786A1.074,1.074,0,0,1,32.6,49.533l-2.265-1.26a.454.454,0,0,0-.443,0l-2.265,1.26a1.074,1.074,0,0,1-1.578-1.119l.451-2.786a.462.462,0,0,0-.124-.4l-1.957-2.019a1.082,1.082,0,0,1,.606-1.822l2.636-.405a.457.457,0,0,0,.345-.26l1.135-2.435A1.07,1.07,0,0,1,31.082,38.292Z" transform="translate(12.891 255.329)" fill="#e89005"/>
    <path id="Path_28840" data-name="Path 28840" d="M31.082,38.292l1.135,2.435a.457.457,0,0,0,.345.26l2.636.405a1.082,1.082,0,0,1,.606,1.822l-1.957,2.019a.462.462,0,0,0-.124.4l.451,2.786A1.074,1.074,0,0,1,32.6,49.533l-2.265-1.26a.454.454,0,0,0-.443,0l-2.265,1.26a1.074,1.074,0,0,1-1.578-1.119l.451-2.786a.462.462,0,0,0-.124-.4l-1.957-2.019a1.082,1.082,0,0,1,.606-1.822l2.636-.405a.457.457,0,0,0,.345-.26l1.135-2.435A1.07,1.07,0,0,1,31.082,38.292Z" transform="translate(29.891 255.329)" fill="#e89005"/>
    <path id="Path_28841" data-name="Path 28841" d="M31.082,38.292l1.135,2.435a.457.457,0,0,0,.345.26l2.636.405a1.082,1.082,0,0,1,.606,1.822l-1.957,2.019a.462.462,0,0,0-.124.4l.451,2.786A1.074,1.074,0,0,1,32.6,49.533l-2.265-1.26a.454.454,0,0,0-.443,0l-2.265,1.26a1.074,1.074,0,0,1-1.578-1.119l.451-2.786a.462.462,0,0,0-.124-.4l-1.957-2.019a1.082,1.082,0,0,1,.606-1.822l2.636-.405a.457.457,0,0,0,.345-.26l1.135-2.435A1.07,1.07,0,0,1,31.082,38.292Z" transform="translate(46.891 255.329)" fill="#e89005"/>
    <path id="Path_28842" data-name="Path 28842" d="M31.082,38.292l1.135,2.435a.457.457,0,0,0,.345.26l2.636.405a1.082,1.082,0,0,1,.606,1.822l-1.957,2.019a.462.462,0,0,0-.124.4l.451,2.786A1.074,1.074,0,0,1,32.6,49.533l-2.265-1.26a.454.454,0,0,0-.443,0l-2.265,1.26a1.074,1.074,0,0,1-1.578-1.119l.451-2.786a.462.462,0,0,0-.124-.4l-1.957-2.019a1.082,1.082,0,0,1,.606-1.822l2.636-.405a.457.457,0,0,0,.345-.26l1.135-2.435A1.07,1.07,0,0,1,31.082,38.292Z" transform="translate(63.891 255.329)" fill="#ebebeb"/>
    <path id="Path_28839" data-name="Path 28839" d="M31.082,38.292l1.135,2.435a.457.457,0,0,0,.345.26l2.636.405a1.082,1.082,0,0,1,.606,1.822l-1.957,2.019a.462.462,0,0,0-.124.4l.451,2.786A1.074,1.074,0,0,1,32.6,49.533l-2.265-1.26a.454.454,0,0,0-.443,0l-2.265,1.26a1.074,1.074,0,0,1-1.578-1.119l.451-2.786a.462.462,0,0,0-.124-.4l-1.957-2.019a1.082,1.082,0,0,1,.606-1.822l2.636-.405a.457.457,0,0,0,.345-.26l1.135-2.435A1.07,1.07,0,0,1,31.082,38.292Z" transform="translate(-4.109 255.329)" fill="#e89005"/>
  </g>
</svg>
