<svg xmlns="http://www.w3.org/2000/svg" xmlns:xlink="http://www.w3.org/1999/xlink" width="38" height="40" viewBox="0 0 38 40">
  <defs>
    <linearGradient id="linear-gradient" x1="1" y1="0.986" x2="-0.228" y2="0.16" gradientUnits="objectBoundingBox">
      <stop offset="0" stop-color="#371d71"/>
      <stop offset="1" stop-color="#d00000"/>
    </linearGradient>
  </defs>
  <path id="Path_30306" data-name="Path 30306" d="M17.449,36.8v1.641a1.551,1.551,0,1,0,3.1,0V36.8a1.551,1.551,0,1,0-3.1,0M33.434,25.109a1.565,1.565,0,0,0,.952,1.991l1.551.547a1.537,1.537,0,0,0,.512.088,1.564,1.564,0,0,0,.513-3.038l-1.551-.547a1.544,1.544,0,0,0-1.976.959M2.59,23.759l-1.551.547a1.564,1.564,0,0,0,.512,3.038,1.538,1.538,0,0,0,.513-.088l1.551-.547A1.564,1.564,0,0,0,3.1,23.671a1.539,1.539,0,0,0-.512.088M7.046,3.524a1.57,1.57,0,0,0-.29,2.19L7.764,7.043a1.543,1.543,0,0,0,2.174.292,1.57,1.57,0,0,0,.29-2.19L9.22,3.817a1.543,1.543,0,0,0-2.174-.292m21.889.292L27.927,5.145a1.57,1.57,0,0,0,.29,2.19,1.542,1.542,0,0,0,2.174-.292L31.4,5.715a1.57,1.57,0,0,0-.29-2.19,1.543,1.543,0,0,0-2.174.292M18.976,0a4.082,4.082,0,0,0-3.937,2.891l-2.326,7.285a1.068,1.068,0,0,1-.984.761H4.221a4.16,4.16,0,0,0-2.437,7.518l6.071,4.477a1.059,1.059,0,0,1,.377,1.182L5.906,31.4a4.133,4.133,0,0,0,6.375,4.663l6.088-4.513a1.022,1.022,0,0,1,1.217,0l6.09,4.446A4.047,4.047,0,0,0,30.534,36a4.136,4.136,0,0,0,1.512-4.675l0-.016L30.4,26.378a1.549,1.549,0,0,0-1.964-.984,1.566,1.566,0,0,0-.977,1.979L29.1,32.3a1.028,1.028,0,0,1-.383,1.176.981.981,0,0,1-1.214,0L21.41,29.021a4.1,4.1,0,0,0-4.874,0l-6.088,4.513a.979.979,0,0,1-1.21,0,1.03,1.03,0,0,1-.38-1.184l2.327-7.281a4.19,4.19,0,0,0-1.5-4.666L3.614,15.932a1.032,1.032,0,0,1,.607-1.87h7.507a4.151,4.151,0,0,0,3.937-2.926l2.327-7.285a1.031,1.031,0,0,1,1.968,0l2.328,7.291a4.149,4.149,0,0,0,3.936,2.924H33.78a1.032,1.032,0,0,1,.6,1.871L30.26,18.973a1.571,1.571,0,0,0-.336,2.184,1.544,1.544,0,0,0,2.168.338l4.123-3.038a4.118,4.118,0,0,0,1.5-4.651,4.077,4.077,0,0,0-3.935-2.87H26.224a1.067,1.067,0,0,1-.984-.758L22.912,2.888A4.08,4.08,0,0,0,18.976,0Z" transform="translate(0)" fill="url(#linear-gradient)"/>
</svg>
