<svg xmlns="http://www.w3.org/2000/svg" xmlns:xlink="http://www.w3.org/1999/xlink" width="93" height="80" viewBox="0 0 93 80">
  <defs>
    <filter id="XMLID_4_" x="0" y="0" width="93" height="80" filterUnits="userSpaceOnUse">
      <feOffset dy="3" input="SourceAlpha"/>
      <feGaussianBlur stdDeviation="7.5" result="blur"/>
      <feFlood flood-opacity="0.051"/>
      <feComposite operator="in" in2="blur"/>
      <feComposite in="SourceGraphic"/>
    </filter>
  </defs>
  <g id="visa" transform="translate(22.5 19.5)">
    <g transform="matrix(1, 0, 0, 1, -22.5, -19.5)" filter="url(#XMLID_4_)">
      <path id="XMLID_4_2" data-name="XMLID_4_" d="M691.136,671.4H652.049a4.532,4.532,0,0,1-4.449-4.606V641.006a4.532,4.532,0,0,1,4.449-4.606h39.1a4.532,4.532,0,0,1,4.449,4.606v25.772A4.548,4.548,0,0,1,691.136,671.4Z" transform="translate(-625.1 -616.9)" fill="#fff"/>
    </g>
    <g id="Group_27760" data-name="Group 27760" transform="translate(4.734 11.992)">
      <g id="XMLID_7_">
        <g id="XMLID_9_" transform="translate(0.018)">
          <path id="XMLID_19_" d="M781.488,732.955H778.4l1.93-11.855h3.088Z" transform="translate(-765.075 -720.879)" fill="#0e66b2"/>
          <path id="XMLID_18_" d="M716.634,721.1l-2.941,8.16-.349-1.764h0l-1.047-5.33a1.327,1.327,0,0,0-1.471-1.066h-4.871l-.055.2a11.644,11.644,0,0,1,3.235,1.36l2.683,10.311h3.216l4.907-11.855h-3.308Z" transform="translate(-705.9 -720.879)" fill="#0e66b2"/>
          <path id="XMLID_11_" d="M860.161,732.955h2.83L860.528,721.1h-2.481a1.445,1.445,0,0,0-1.434.882L852,732.955h3.216l.643-1.765h3.933Zm-3.4-4.191,1.617-4.429.919,4.429Z" transform="translate(-825.148 -720.879)" fill="#0e66b2"/>
          <path id="XMLID_10_" d="M814.385,722.969l.441-2.555a8.951,8.951,0,0,0-2.775-.515c-1.525,0-5.165.661-5.165,3.933,0,3.069,4.264,3.106,4.264,4.705,0,1.617-3.823,1.323-5.091.313l-.459,2.665a8.754,8.754,0,0,0,3.492.662c2.114,0,5.293-1.084,5.293-4.062,0-3.088-4.3-3.364-4.3-4.706C810.048,722.068,813.062,722.234,814.385,722.969Z" transform="translate(-787.276 -719.9)" fill="#0e66b2"/>
        </g>
        <path id="XMLID_8_" d="M713.243,727.5l-1.047-5.33a1.327,1.327,0,0,0-1.47-1.066h-4.871l-.055.2a11.855,11.855,0,0,1,4.576,2.3A9.123,9.123,0,0,1,713.243,727.5Z" transform="translate(-705.8 -720.879)" fill="#f9a533"/>
      </g>
    </g>
  </g>
</svg>
